<svg width="15" height="15" viewBox="0 0 15 15" fill="none" xmlns="http://www.w3.org/2000/svg">
<path d="M2.5 11.875V10.625H3.75V6.25C3.75 5.38542 4.01042 4.61979 4.53125 3.95312C5.05208 3.27604 5.72917 2.83333 6.5625 2.625V2.1875C6.5625 1.92708 6.65104 1.70833 6.82813 1.53125C7.01563 1.34375 7.23958 1.25 7.5 1.25C7.76042 1.25 7.97917 1.34375 8.15625 1.53125C8.34375 1.70833 8.4375 1.92708 8.4375 2.1875V2.625C9.27083 2.83333 9.94792 3.27604 10.4688 3.95312C10.9896 4.61979 11.25 5.38542 11.25 6.25V10.625H12.5V11.875H2.5ZM7.5 13.75C7.15625 13.75 6.85938 13.6302 6.60938 13.3906C6.36979 13.1406 6.25 12.8437 6.25 12.5H8.75C8.75 12.8437 8.625 13.1406 8.375 13.3906C8.13542 13.6302 7.84375 13.75 7.5 13.75ZM5 10.625H10V6.25C10 5.5625 9.75521 4.97396 9.26563 4.48437C8.77604 3.99479 8.1875 3.75 7.5 3.75C6.8125 3.75 6.22396 3.99479 5.73438 4.48437C5.24479 4.97396 5 5.5625 5 6.25V10.625Z" fill="#777777"/>
</svg>
