<svg width="20" height="20" viewBox="0 0 20 20" fill="none" xmlns="http://www.w3.org/2000/svg">
<g clip-path="url(#clip0_4_134)">
<path d="M18.3333 9.99999C18.3333 14.6024 14.6024 18.3333 10 18.3333M18.3333 9.99999C18.3333 5.39762 14.6024 1.66666 10 1.66666M18.3333 9.99999H1.66667M10 18.3333C5.39763 18.3333 1.66667 14.6024 1.66667 9.99999M10 18.3333C12.0844 16.0514 13.269 13.09 13.3333 9.99999C13.269 6.91002 12.0844 3.94862 10 1.66666M10 18.3333C7.9156 16.0514 6.73104 13.09 6.66667 9.99999C6.73104 6.91002 7.9156 3.94862 10 1.66666M1.66667 9.99999C1.66667 5.39762 5.39763 1.66666 10 1.66666" stroke="#B34700" stroke-width="1.5" stroke-linecap="round" stroke-linejoin="round"/>
</g>
<defs>
<clipPath id="clip0_4_134">
<rect width="20" height="20" fill="white"/>
</clipPath>
</defs>
</svg>
