<svg width="20" height="20" viewBox="0 0 20 20" fill="none" xmlns="http://www.w3.org/2000/svg">
<path d="M10 9.99999C9.08333 9.99999 8.29861 9.67361 7.64583 9.02083C6.99306 8.36805 6.66667 7.58333 6.66667 6.66666C6.66667 5.74999 6.99306 4.96527 7.64583 4.31249C8.29861 3.65972 9.08333 3.33333 10 3.33333C10.9167 3.33333 11.7014 3.65972 12.3542 4.31249C13.0069 4.96527 13.3333 5.74999 13.3333 6.66666C13.3333 7.58333 13.0069 8.36805 12.3542 9.02083C11.7014 9.67361 10.9167 9.99999 10 9.99999ZM3.33333 16.6667V14.3333C3.33333 13.8611 3.45486 13.4271 3.69792 13.0312C3.94097 12.6354 4.26389 12.3333 4.66667 12.125C5.52778 11.6944 6.40278 11.3715 7.29167 11.1562C8.18056 10.941 9.08333 10.8333 10 10.8333C10.9167 10.8333 11.8194 10.941 12.7083 11.1562C13.5972 11.3715 14.4722 11.6944 15.3333 12.125C15.7361 12.3333 16.059 12.6354 16.3021 13.0312C16.5451 13.4271 16.6667 13.8611 16.6667 14.3333V16.6667H3.33333ZM5 15H15V14.3333C15 14.1806 14.9618 14.0417 14.8854 13.9167C14.809 13.7917 14.7083 13.6944 14.5833 13.625C13.8333 13.25 13.0764 12.9687 12.3125 12.7812C11.5486 12.5937 10.7778 12.5 10 12.5C9.22222 12.5 8.45139 12.5937 7.6875 12.7812C6.92361 12.9687 6.16667 13.25 5.41667 13.625C5.29167 13.6944 5.19097 13.7917 5.11458 13.9167C5.03819 14.0417 5 14.1806 5 14.3333V15ZM10 8.33333C10.4583 8.33333 10.8507 8.17013 11.1771 7.84374C11.5035 7.51736 11.6667 7.12499 11.6667 6.66666C11.6667 6.20833 11.5035 5.81597 11.1771 5.48958C10.8507 5.16319 10.4583 4.99999 10 4.99999C9.54167 4.99999 9.14931 5.16319 8.82292 5.48958C8.49653 5.81597 8.33333 6.20833 8.33333 6.66666C8.33333 7.12499 8.49653 7.51736 8.82292 7.84374C9.14931 8.17013 9.54167 8.33333 10 8.33333Z" fill="#D35400"/>
</svg>
