<svg width="20" height="20" viewBox="0 0 20 20" fill="none" xmlns="http://www.w3.org/2000/svg">
<g clip-path="url(#clip0_4_294)">
<path d="M17.675 13.2417C17.1449 14.4954 16.3157 15.6002 15.2599 16.4594C14.2041 17.3187 12.954 17.9062 11.6187 18.1707C10.2834 18.4351 8.90369 18.3685 7.60012 17.9765C6.29656 17.5846 5.10885 16.8792 4.14085 15.9222C3.17284 14.9652 2.45401 13.7856 2.0472 12.4866C1.64038 11.1876 1.55797 9.80876 1.80716 8.47055C2.05636 7.13234 2.62958 5.87554 3.4767 4.81004C4.32383 3.74455 5.41907 2.90279 6.66667 2.35835M18.3333 10C18.3333 8.90567 18.1178 7.82204 17.699 6.81099C17.2802 5.79995 16.6664 4.88129 15.8926 4.10746C15.1187 3.33364 14.2001 2.71981 13.189 2.30102C12.178 1.88224 11.0943 1.66669 10 1.66669V10H18.3333Z" stroke="#FF9933" stroke-width="1.5" stroke-linecap="round" stroke-linejoin="round"/>
</g>
<defs>
<clipPath id="clip0_4_294">
<rect width="20" height="20" fill="white"/>
</clipPath>
</defs>
</svg>
