<svg width="15" height="15" viewBox="0 0 15 15" fill="none" xmlns="http://www.w3.org/2000/svg">
<g clip-path="url(#clip0_4_208)">
<path d="M3.75 3.75H3.75625M3.75 11.25H3.75625M2.5 1.25H12.5C13.1904 1.25 13.75 1.80964 13.75 2.5V5C13.75 5.69036 13.1904 6.25 12.5 6.25H2.5C1.80964 6.25 1.25 5.69036 1.25 5V2.5C1.25 1.80964 1.80964 1.25 2.5 1.25ZM2.5 8.75H12.5C13.1904 8.75 13.75 9.30964 13.75 10V12.5C13.75 13.1904 13.1904 13.75 12.5 13.75H2.5C1.80964 13.75 1.25 13.1904 1.25 12.5V10C1.25 9.30964 1.80964 8.75 2.5 8.75Z" stroke="#FF6B00" stroke-width="1.2" stroke-linecap="round" stroke-linejoin="round"/>
</g>
<defs>
<clipPath id="clip0_4_208">
<rect width="15" height="15" fill="white"/>
</clipPath>
</defs>
</svg>
